<?xml version="1.0" standalone="no"?>
<!DOCTYPE svg PUBLIC "-//W3C//DTD SVG 20010904//EN"
 "http://www.w3.org/TR/2001/REC-SVG-20010904/DTD/svg10.dtd">
<svg version="1.0" xmlns="http://www.w3.org/2000/svg"
 width="200.000000pt" height="200.000000pt" viewBox="0 0 200.000000 200.000000"
 preserveAspectRatio="xMidYMid meet">
<metadata>
Created by potrace 1.11, written by Peter Selinger 2001-2013
</metadata>
<g transform="translate(0.000000,200.000000) scale(0.100000,-0.100000)"
fill="#000000" stroke="none">
<path d="M1244 1719 c-12 -4 -41 -33 -65 -65 -90 -117 -78 -109 -155 -105 -38
3 -104 4 -146 3 -200 -2 -383 -112 -486 -292 -49 -86 -64 -129 -77 -225 -6
-44 -6 -146 0 -175 2 -14 7 -34 9 -45 26 -124 86 -226 188 -319 83 -75 74 -69
159 -109 92 -43 201 -70 289 -70 96 0 172 18 255 61 28 14 60 30 72 36 13 6
23 14 23 19 0 4 4 7 10 7 17 0 114 108 151 169 36 59 76 170 82 226 2 17 5 35
8 40 2 6 4 33 4 62 0 33 4 48 10 43 6 -4 19 -6 30 -4 52 7 60 12 59 33 0 13 6
21 15 21 13 0 13 2 3 9 -11 6 -9 9 5 13 15 4 19 14 18 41 0 32 -15 68 -15 38
0 -7 -4 -9 -10 -6 -14 9 -13 55 2 55 6 0 8 3 5 6 -4 4 -13 1 -22 -6 -9 -8 -15
-8 -15 -2 0 6 5 14 10 17 6 4 8 10 5 15 -3 5 0 30 6 57 19 85 20 224 2 262
-22 43 -80 81 -132 85 -27 2 -57 14 -86 35 -78 56 -169 86 -211 70z m370 -203
c17 -27 28 -86 15 -86 -5 0 -9 7 -9 15 0 20 -32 85 -42 85 -4 0 -8 4 -8 10 0
15 28 0 44 -24z m13 -148 c-4 -29 -11 -77 -18 -107 -11 -53 -12 -54 -25 -30
-13 23 -15 23 -18 -3 0 -7 -5 -13 -11 -13 -5 0 -16 -4 -22 -8 -9 -6 -11 -3 -7
8 4 9 13 14 22 10 12 -4 13 -3 2 10 -11 14 -14 13 -25 -1 -9 -13 -14 -14 -19
-5 -8 12 14 46 73 111 17 19 34 45 37 58 11 40 16 23 11 -30z m60 -273 c0 -8
-4 -12 -9 -9 -5 3 -6 10 -3 15 9 13 12 11 12 -6z m-50 -97 c-3 -8 -6 -5 -6 6
-1 11 2 17 5 13 3 -3 4 -12 1 -19z"/>
</g>
</svg>
